<?xml version="1.0" encoding="UTF-8" standalone="no"?>
<!DOCTYPE svg PUBLIC "-//W3C//DTD SVG 1.1//EN" "http://www.w3.org/Graphics/SVG/1.1/DTD/svg11.dtd">
<svg version="1.1" xmlns="http://www.w3.org/2000/svg" xmlns:xlink="http://www.w3.org/1999/xlink" preserveAspectRatio="xMidYMid meet" viewBox="0 0 640 640" width="640" height="640"><defs><path d="M0 640L640 640L640 0L0 0L0 640Z" id="davSdfAni"></path><path d="M0 640L640 640L640 466.14L0 466.14L0 640" id="b6lktiKMV"></path><path d="M35.59 466.14L73.39 466.14L73.39 0L35.59 0L35.59 466.14" id="d2AEacj2fa"></path><path d="M111.45 0C124.05 0 136.65 0 149.25 0C149.25 155.38 149.25 310.76 149.25 466.14C136.65 466.14 124.05 466.14 111.45 466.14C111.45 310.76 111.45 155.38 111.45 0" id="bvYC4uB2f"></path><path d="M187.31 0C199.91 0 212.5 0 225.11 0C225.11 155.38 225.11 310.76 225.11 466.14C212.5 466.14 199.91 466.14 187.31 466.14C187.31 310.76 187.31 155.38 187.31 0" id="a3mRQRy0OV"></path><path d="M263.17 0C275.77 0 288.37 0 300.97 0C300.97 155.38 300.97 310.76 300.97 466.14C288.37 466.14 275.77 466.14 263.17 466.14C263.17 310.76 263.17 155.38 263.17 0" id="bRtBDXu7o"></path><path d="M339.03 0C351.63 0 364.23 0 376.83 0C376.83 155.38 376.83 310.76 376.83 466.14C364.23 466.14 351.63 466.14 339.03 466.14C339.03 310.76 339.03 155.38 339.03 0" id="a175POAVZB"></path><path d="M414.89 0C427.49 0 440.09 0 452.69 0C452.69 155.38 452.69 310.76 452.69 466.14C440.09 466.14 427.49 466.14 414.89 466.14C414.89 310.76 414.89 155.38 414.89 0" id="i3g46LEvW"></path><path d="M490.75 0C503.35 0 515.94 0 528.55 0C528.55 155.38 528.55 310.76 528.55 466.14C515.94 466.14 503.35 466.14 490.75 466.14C490.75 310.76 490.75 155.38 490.75 0" id="b2tdowPxR"></path><path d="M566.61 466.14L604.41 466.14L604.41 0L566.61 0L566.61 466.14" id="fQknsCNLj"></path><path d="M0 478.74L640 478.74L640 454.8L0 454.8L0 478.74" id="cbedTM64x"></path><path d="M99.53 351.49L540.47 351.49L540.47 69.29L99.53 69.29L99.53 351.49Z" id="b2oMApjJc"></path><path d="M117.8 333.22L522.2 333.22L522.2 87.56L117.8 87.56L117.8 333.22Z" id="e2Nh0kVU14"></path><path d="M522.2 237.32L522.2 333.22L117.8 333.22L117.8 199.06L124.26 199.06L124.26 218.75L140.16 218.75L140.16 267.25L149.25 267.25L149.25 259.22L169.92 259.22L169.92 267.25L177.33 267.25L177.33 237.64L187.31 237.64L187.31 232.29L201.11 232.29L201.11 237.64L210.09 237.64L210.09 280.48L221.58 280.48L221.58 269.93L237.02 269.93L237.02 280.48L249.14 280.48L249.14 231.97L263.17 231.97L263.17 189.14L278.9 189.14L278.9 149.3L300.97 149.3L300.97 189.14L332.92 189.14L332.92 237.32L358.11 237.32L358.11 206.15L369.93 206.15L369.93 197.48L381.26 197.48L381.26 206.15L394.65 206.15L394.65 174.02L405.51 174.02L405.51 166.62L434.49 166.62L434.49 174.02L448.82 174.02L448.82 211.81L465.2 211.81L465.2 196.07L472.91 196.07L472.91 188.66L494.97 188.66L494.97 196.07L501.74 196.07L501.74 237.32L522.2 237.32" id="bxEcyQFqe"></path><path d="M85.04 360.94L554.96 360.94L554.96 343.94L85.04 343.94L85.04 360.94Z" id="c1aLT7Zen7"></path><path d="M314.64 338.58L325.35 338.58L325.35 81.58L314.64 81.58L314.64 338.58" id="b4tALe5Sli"></path><path d="M475.28 220.32L480.17 220.32L480.17 228.03L475.28 228.03L475.28 220.32M425.2 213.55L430.08 213.55L430.08 222.21L425.2 222.21L425.2 213.55M405.05 249.14L411.66 249.14L411.66 260.17L405.05 260.17L405.05 249.14M482.22 283.16L488.5 283.16L488.5 292.92L482.22 292.92L482.22 283.16M508.67 264.89L512.45 264.89L512.45 280.63L508.67 280.63L508.67 264.89M514.97 305.2L518.11 305.2L518.11 319.38L514.97 319.38L514.97 305.2M359.38 284.1L365.99 284.1L365.99 293.87L359.38 293.87L359.38 284.1M429.93 275.6L436.86 275.6L436.86 286.3L429.93 286.3L429.93 275.6M266.78 196.85L273.71 196.85L273.71 201.9L266.78 201.9L266.78 196.85M255.44 262.37L261.11 262.37L261.11 274.34L255.44 274.34L255.44 262.37M225.11 292.29L235.6 292.29L235.6 298.9L225.11 298.9L225.11 292.29M191.19 257.33L194.66 257.33L194.66 265.52L191.19 265.52L191.19 257.33M155.44 275.44L161.43 275.44L161.43 280.95L155.44 280.95L155.44 275.44M166.46 309.46L172.13 309.46L172.13 315.12L166.46 315.12L166.46 309.46M128.2 229.92L131.66 229.92L131.66 238.11L128.2 238.11L128.2 229.92M128.83 261.11L132.29 261.11L132.29 270.87L128.83 270.87L128.83 261.11M401.11 180.79L405.67 180.79L405.67 188.51L401.11 188.51L401.11 180.79M275.28 196.85L282.21 196.85L282.21 201.9L275.28 201.9L275.28 196.85M283.63 229.77L290.56 229.77L290.56 234.81L283.63 234.81L283.63 229.77M292.13 229.77L299.07 229.77L299.07 234.81L292.13 234.81L292.13 229.77M262.22 248.19L267.89 248.19L267.89 260.17L262.22 260.17L262.22 248.19M365.67 240.56L370.4 240.56L370.4 247.01L365.67 247.01L365.67 240.56M371.98 240.56L376.7 240.56L376.7 247.01L371.98 247.01L371.98 240.56M255.44 298.74L261.11 298.74L261.11 310.72L255.44 310.72L255.44 298.74M262.22 298.74L267.89 298.74L267.89 310.72L262.22 310.72L262.22 298.74M196.07 257.33L199.54 257.33L199.54 265.52L196.07 265.52L196.07 257.33M197.48 280.48L200.95 280.48L200.95 288.67L197.48 288.67L197.48 280.48M202.37 280.48L205.84 280.48L205.84 288.67L202.37 288.67L202.37 280.48M155.44 282.6L161.43 282.6L161.43 288.12L155.44 288.12L155.44 282.6M365.67 213.7L370.4 213.7L370.4 220.16L365.67 220.16L365.67 213.7" id="p1tqu1BuQb"></path><path d="M75.34 60.17L566.61 60.17L566.61 51.98L75.34 51.98L75.34 60.17Z" id="k4jOBZW2xV"></path><path d="M564.66 67.71C571.08 67.71 576.29 62.5 576.29 56.08C576.29 49.65 571.08 44.45 564.66 44.45C564.66 49.1 564.66 63.06 564.66 67.71ZM75.34 67.71C68.91 67.71 63.71 62.5 63.71 56.08C63.71 49.65 68.91 44.45 75.34 44.45C75.34 46 75.34 53.75 75.34 67.71" id="a2EC1dxgv5"></path><path d="M0 640L640 640L640 553.07L0 553.07L0 640" id="c9dnxEf4"></path><path d="M0 573.57L640 573.57L640 566.62L0 566.62L0 573.57" id="b5NfnXiDCs"></path><path d="M205.66 441.27L434.33 441.27L434.33 375.75L205.66 375.75L205.66 441.27Z" id="h1dzejBAD0"></path><path d="M407.41 423.09L407.41 426.06C423.56 426.06 432.53 426.06 434.33 426.06C437.95 426.06 441.24 427.55 443.63 429.94C446.02 432.32 447.5 435.62 447.5 439.24C447.5 441.03 447.5 450 447.5 466.14L450.48 466.14C450.48 450 450.48 441.03 450.48 439.24C450.48 434.79 448.66 430.76 445.73 427.83C442.81 424.9 438.77 423.09 434.33 423.09C430.74 423.09 421.77 423.09 407.41 423.09ZM441.83 460.47C441.83 447.73 441.83 440.65 441.83 439.24C441.83 437.18 440.98 435.3 439.62 433.94C438.26 432.58 436.38 431.73 434.33 431.73C432.91 431.73 425.83 431.73 413.08 431.73L413.08 428.76C425.83 428.76 432.91 428.76 434.33 428.76C437.21 428.76 439.83 429.94 441.73 431.84C443.63 433.74 444.81 436.36 444.81 439.24C444.81 440.65 444.81 447.73 444.81 460.47L441.83 460.47" id="gj28fLgOZ"></path><path d="M555 436.86C539.13 436.86 530.31 436.86 528.55 436.86C528.55 411.56 528.55 386.25 528.55 360.94C530.31 360.94 539.11 360.94 554.96 360.94L554.96 343.94L540.47 343.94L540.47 69.29C533.31 69.29 529.34 69.29 528.55 69.29C528.55 66.26 528.55 63.2 528.55 60.17C530.31 60.17 539.13 60.17 555 60.17L555 436.86M490.75 436.86L466.94 436.86L466.94 360.94C481.22 360.94 489.16 360.94 490.75 360.94C490.75 386.25 490.75 411.56 490.75 436.86M490.75 69.29L466.94 69.29L466.94 60.17C481.22 60.17 489.16 60.17 490.75 60.17C490.75 63.2 490.75 66.26 490.75 69.29" id="b5LUFhbUqB"></path><path d="M528.55 436.86C505.87 436.86 493.27 436.86 490.75 436.86C490.75 411.56 490.75 386.25 490.75 360.94C494.53 360.94 524.77 360.94 528.55 360.94C528.55 386.25 528.55 411.56 528.55 436.86M528.55 69.29C505.87 69.29 493.27 69.29 490.75 69.29C490.75 66.26 490.75 63.2 490.75 60.17C494.53 60.17 524.77 60.17 528.55 60.17C528.55 63.2 528.55 66.26 528.55 69.29" id="bgPloSSnn"></path><path d="M540.47 343.94L466.94 343.94L466.94 333.22L522.2 333.22L522.2 237.32L522.2 87.56L466.94 87.56L466.94 69.29L490.75 69.29L528.55 69.29L540.47 69.29L540.47 343.94" id="bnxQhAxNB"></path><path d="M522.2 237.32L501.74 237.32L501.74 196.07L494.97 196.07L494.97 188.66L472.91 188.66L472.91 196.07L466.94 196.07L466.94 87.56L522.2 87.56L522.2 237.32" id="c8pkGboPk1"></path><path d="M522.2 333.22L466.94 333.22L466.94 196.07L472.91 196.07L472.91 188.66L494.97 188.66L494.97 196.07L501.74 196.07L501.74 237.32L522.2 237.32L522.2 333.22M514.97 305.2L514.97 319.38L518.11 319.38L518.11 305.2L514.97 305.2M482.22 283.16L482.22 292.92L488.5 292.92L488.5 283.16L482.22 283.16M508.67 264.89L508.67 280.63L512.45 280.63L512.45 264.89L508.67 264.89M475.28 220.32L475.28 228.03L480.17 228.03L480.17 220.32L475.28 220.32" id="alGs2VVNj"></path><path d="M554.96 360.94L466.94 360.94L466.94 343.94L554.96 343.94L554.96 360.94" id="e2q1EqLTZW"></path><path d="M518.11 319.38L514.97 319.38L514.97 305.2L518.11 305.2L518.11 319.38M488.5 292.92L482.22 292.92L482.22 283.16L488.5 283.16L488.5 292.92M512.45 280.63L508.67 280.63L508.67 264.89L512.45 264.89L512.45 280.63M480.17 228.03L475.28 228.03L475.28 220.32L480.17 220.32L480.17 228.03" id="a2pdOOoA1"></path><path d="M187.31 436.86C164.47 436.86 151.78 436.86 149.25 436.86C149.25 411.56 149.25 386.25 149.25 360.94C153.05 360.94 183.5 360.94 187.31 360.94C187.31 386.25 187.31 411.56 187.31 436.86M111.45 436.86L89.62 436.86L89.62 360.94C102.72 360.94 110 360.94 111.45 360.94C111.45 386.25 111.45 411.56 111.45 436.86M99.53 343.94L89.62 343.94L89.62 60.17C102.72 60.17 110 60.17 111.45 60.17C111.45 63.2 111.45 66.26 111.45 69.29C110.66 69.29 106.68 69.29 99.53 69.29L99.53 343.94M187.31 69.29C164.47 69.29 151.78 69.29 149.25 69.29C149.25 66.26 149.25 63.2 149.25 60.17C153.05 60.17 183.5 60.17 187.31 60.17C187.31 63.2 187.31 66.26 187.31 69.29" id="c3RGPVC55N"></path><path d="M149.25 436.86C126.57 436.86 113.97 436.86 111.45 436.86C111.45 411.56 111.45 386.25 111.45 360.94C115.23 360.94 145.47 360.94 149.25 360.94C149.25 386.25 149.25 411.56 149.25 436.86M149.25 69.29C126.57 69.29 113.97 69.29 111.45 69.29C111.45 66.26 111.45 63.2 111.45 60.17C115.23 60.17 145.47 60.17 149.25 60.17C149.25 63.2 149.25 66.26 149.25 69.29" id="a1x7eUmNbB"></path><path d="M205.66 436.86C194.65 436.86 188.53 436.86 187.31 436.86C187.31 411.56 187.31 386.25 187.31 360.94C189.07 360.94 197.87 360.94 213.71 360.94L213.71 375.75L205.66 375.75L205.66 436.86M213.71 69.29C197.87 69.29 189.07 69.29 187.31 69.29C187.31 66.26 187.31 63.2 187.31 60.17C189.07 60.17 197.87 60.17 213.71 60.17L213.71 69.29" id="e5metT2AZ"></path><path d="M213.71 343.94L99.53 343.94L99.53 69.29L213.71 69.29L213.71 87.56L117.8 87.56L117.8 333.22L213.71 333.22L213.71 343.94" id="ep6rTPHPu"></path><path d="M117.8 333.22L117.8 333.22L117.8 87.56L213.71 87.56L213.71 280.48L210.09 280.48L210.09 237.64L201.11 237.64L201.11 232.29L187.31 232.29L187.31 237.64L177.33 237.64L177.33 267.25L169.92 267.25L169.92 259.22L149.25 259.22L149.25 267.25L140.16 267.25L140.16 218.75L124.26 218.75L124.26 199.06L117.8 199.06L117.8 333.22" id="hAvV47xyX"></path><path d="M213.71 333.22L117.8 333.22L117.8 199.06L124.26 199.06L124.26 218.75L140.16 218.75L140.16 267.25L149.25 267.25L149.25 259.22L169.92 259.22L169.92 267.25L177.33 267.25L177.33 237.64L187.31 237.64L187.31 232.29L201.11 232.29L201.11 237.64L210.09 237.64L210.09 280.48L213.71 280.48L213.71 333.22M166.46 309.46L166.46 315.12L172.13 315.12L172.13 309.46L166.46 309.46M202.37 280.48L202.37 288.67L205.84 288.67L205.84 280.48L202.37 280.48M197.48 280.48L197.48 288.67L200.95 288.67L200.95 280.48L197.48 280.48M155.44 282.6L155.44 288.12L161.43 288.12L161.43 282.6L155.44 282.6M155.44 275.44L155.44 280.95L161.43 280.95L161.43 275.44L155.44 275.44M128.83 261.11L128.83 270.87L132.29 270.87L132.29 261.11L128.83 261.11M196.07 257.33L196.07 265.52L199.54 265.52L199.54 257.33L196.07 257.33M191.19 257.33L191.19 265.52L194.66 265.52L194.66 257.33L191.19 257.33M128.2 229.92L128.2 238.11L131.66 238.11L131.66 229.92L128.2 229.92" id="a2F6gKjaio"></path><path d="M213.71 360.94L89.62 360.94L89.62 343.94L213.71 343.94L213.71 360.94" id="bfndoA3d1"></path><path d="M172.13 315.12L166.46 315.12L166.46 309.46L172.13 309.46L172.13 315.12M205.84 288.67L202.37 288.67L202.37 280.48L205.84 280.48L205.84 288.67M200.95 288.67L197.48 288.67L197.48 280.48L200.95 280.48L200.95 288.67M161.43 288.12L155.44 288.12L155.44 282.6L161.43 282.6L161.43 288.12M161.43 280.95L155.44 280.95L155.44 275.44L161.43 275.44L161.43 280.95M132.29 270.87L128.83 270.87L128.83 261.11L132.29 261.11L132.29 270.87M199.54 265.52L196.07 265.52L196.07 257.33L199.54 257.33L199.54 265.52M194.66 265.52L191.19 265.52L191.19 257.33L194.66 257.33L194.66 265.52M131.66 238.11L128.2 238.11L128.2 229.92L131.66 229.92L131.66 238.11" id="a9NqsxG1n"></path><path d="M555 60.17L466.94 60.17L466.94 51.98L555 51.98L555 60.17M213.71 60.17L187.31 60.17L149.25 60.17L111.45 60.17L89.62 60.17L89.62 51.98L213.71 51.98L213.71 60.17" id="c1WaZWJvS"></path><path d="M205.66 436.86L213.71 436.86L213.71 375.75L205.66 375.75L205.66 436.86Z" id="adp1pD1yU"></path></defs><g><g><g><use xlink:href="#davSdfAni" opacity="1" fill="#fbc2cc" fill-opacity="1"></use><g><use xlink:href="#davSdfAni" opacity="1" fill-opacity="0" stroke="#000000" stroke-width="1" stroke-opacity="0"></use></g></g><g><use xlink:href="#b6lktiKMV" opacity="1" fill="#64393e" fill-opacity="1"></use><g><use xlink:href="#b6lktiKMV" opacity="1" fill-opacity="0" stroke="#000000" stroke-width="1" stroke-opacity="0"></use></g></g><g><use xlink:href="#d2AEacj2fa" opacity="1" fill="#fddfe5" fill-opacity="1"></use><g><use xlink:href="#d2AEacj2fa" opacity="1" fill-opacity="0" stroke="#000000" stroke-width="1" stroke-opacity="0"></use></g></g><g><use xlink:href="#bvYC4uB2f" opacity="1" fill="#fddfe5" fill-opacity="1"></use><g><use xlink:href="#bvYC4uB2f" opacity="1" fill-opacity="0" stroke="#000000" stroke-width="1" stroke-opacity="0"></use></g></g><g><use xlink:href="#a3mRQRy0OV" opacity="1" fill="#fddfe5" fill-opacity="1"></use><g><use xlink:href="#a3mRQRy0OV" opacity="1" fill-opacity="0" stroke="#000000" stroke-width="1" stroke-opacity="0"></use></g></g><g><use xlink:href="#bRtBDXu7o" opacity="1" fill="#fddfe5" fill-opacity="1"></use><g><use xlink:href="#bRtBDXu7o" opacity="1" fill-opacity="0" stroke="#000000" stroke-width="1" stroke-opacity="0"></use></g></g><g><use xlink:href="#a175POAVZB" opacity="1" fill="#fddfe5" fill-opacity="1"></use><g><use xlink:href="#a175POAVZB" opacity="1" fill-opacity="0" stroke="#000000" stroke-width="1" stroke-opacity="0"></use></g></g><g><use xlink:href="#i3g46LEvW" opacity="1" fill="#fddfe5" fill-opacity="1"></use><g><use xlink:href="#i3g46LEvW" opacity="1" fill-opacity="0" stroke="#000000" stroke-width="1" stroke-opacity="0"></use></g></g><g><use xlink:href="#b2tdowPxR" opacity="1" fill="#fddfe5" fill-opacity="1"></use><g><use xlink:href="#b2tdowPxR" opacity="1" fill-opacity="0" stroke="#000000" stroke-width="1" stroke-opacity="0"></use></g></g><g><use xlink:href="#fQknsCNLj" opacity="1" fill="#fddfe5" fill-opacity="1"></use><g><use xlink:href="#fQknsCNLj" opacity="1" fill-opacity="0" stroke="#000000" stroke-width="1" stroke-opacity="0"></use></g></g><g><use xlink:href="#cbedTM64x" opacity="1" fill="#ffffff" fill-opacity="1"></use><g><use xlink:href="#cbedTM64x" opacity="1" fill-opacity="0" stroke="#000000" stroke-width="1" stroke-opacity="0"></use></g></g><g><use xlink:href="#b2oMApjJc" opacity="1" fill="#ffffff" fill-opacity="1"></use><g><use xlink:href="#b2oMApjJc" opacity="1" fill-opacity="0" stroke="#000000" stroke-width="1" stroke-opacity="0"></use></g></g><g><use xlink:href="#e2Nh0kVU14" opacity="1" fill="#596268" fill-opacity="1"></use><g><use xlink:href="#e2Nh0kVU14" opacity="1" fill-opacity="0" stroke="#000000" stroke-width="1" stroke-opacity="0"></use></g></g><g><use xlink:href="#bxEcyQFqe" opacity="1" fill="#3b4449" fill-opacity="1"></use><g><use xlink:href="#bxEcyQFqe" opacity="1" fill-opacity="0" stroke="#000000" stroke-width="1" stroke-opacity="0"></use></g></g><g><use xlink:href="#c1aLT7Zen7" opacity="1" fill="#ffffff" fill-opacity="1"></use><g><use xlink:href="#c1aLT7Zen7" opacity="1" fill-opacity="0" stroke="#000000" stroke-width="1" stroke-opacity="0"></use></g></g><g><use xlink:href="#b4tALe5Sli" opacity="1" fill="#ffffff" fill-opacity="1"></use><g><use xlink:href="#b4tALe5Sli" opacity="1" fill-opacity="0" stroke="#000000" stroke-width="1" stroke-opacity="0"></use></g></g><g><use xlink:href="#p1tqu1BuQb" opacity="1" fill="#daca64" fill-opacity="1"></use><g><use xlink:href="#p1tqu1BuQb" opacity="1" fill-opacity="0" stroke="#000000" stroke-width="1" stroke-opacity="0"></use></g></g><g><use xlink:href="#k4jOBZW2xV" opacity="1" fill="#ffffff" fill-opacity="1"></use><g><use xlink:href="#k4jOBZW2xV" opacity="1" fill-opacity="0" stroke="#000000" stroke-width="1" stroke-opacity="0"></use></g></g><g><use xlink:href="#a2EC1dxgv5" opacity="1" fill="#6a4b4f" fill-opacity="1"></use><g><use xlink:href="#a2EC1dxgv5" opacity="1" fill-opacity="0" stroke="#000000" stroke-width="1" stroke-opacity="0"></use></g></g><g><use xlink:href="#c9dnxEf4" opacity="1" fill="#3f2426" fill-opacity="1"></use><g><use xlink:href="#c9dnxEf4" opacity="1" fill-opacity="0" stroke="#000000" stroke-width="1" stroke-opacity="0"></use></g></g><g><use xlink:href="#b5NfnXiDCs" opacity="1" fill="#81525a" fill-opacity="1"></use><g><use xlink:href="#b5NfnXiDCs" opacity="1" fill-opacity="0" stroke="#000000" stroke-width="1" stroke-opacity="0"></use></g></g><g><use xlink:href="#h1dzejBAD0" opacity="1" fill="#ffffff" fill-opacity="1"></use><g><use xlink:href="#h1dzejBAD0" opacity="1" fill-opacity="0" stroke="#000000" stroke-width="1" stroke-opacity="0"></use></g></g><g><use xlink:href="#gj28fLgOZ" opacity="1" fill="#ffffff" fill-opacity="1"></use><g><use xlink:href="#gj28fLgOZ" opacity="1" fill-opacity="0" stroke="#000000" stroke-width="1" stroke-opacity="0"></use></g></g><g><use xlink:href="#b5LUFhbUqB" opacity="1" fill="#df6a5a" fill-opacity="1"></use><g><use xlink:href="#b5LUFhbUqB" opacity="1" fill-opacity="0" stroke="#000000" stroke-width="1" stroke-opacity="0"></use></g></g><g><use xlink:href="#bgPloSSnn" opacity="1" fill="#e07561" fill-opacity="1"></use><g><use xlink:href="#bgPloSSnn" opacity="1" fill-opacity="0" stroke="#000000" stroke-width="1" stroke-opacity="0"></use></g></g><g><use xlink:href="#bnxQhAxNB" opacity="1" fill="#e18267" fill-opacity="1"></use><g><use xlink:href="#bnxQhAxNB" opacity="1" fill-opacity="0" stroke="#000000" stroke-width="1" stroke-opacity="0"></use></g></g><g><use xlink:href="#c8pkGboPk1" opacity="1" fill="#974b40" fill-opacity="1"></use><g><use xlink:href="#c8pkGboPk1" opacity="1" fill-opacity="0" stroke="#000000" stroke-width="1" stroke-opacity="0"></use></g></g><g><use xlink:href="#alGs2VVNj" opacity="1" fill="#823f37" fill-opacity="1"></use><g><use xlink:href="#alGs2VVNj" opacity="1" fill-opacity="0" stroke="#000000" stroke-width="1" stroke-opacity="0"></use></g></g><g><use xlink:href="#e2q1EqLTZW" opacity="1" fill="#e18267" fill-opacity="1"></use><g><use xlink:href="#e2q1EqLTZW" opacity="1" fill-opacity="0" stroke="#000000" stroke-width="1" stroke-opacity="0"></use></g></g><g><use xlink:href="#a2pdOOoA1" opacity="1" fill="#d37337" fill-opacity="1"></use><g><use xlink:href="#a2pdOOoA1" opacity="1" fill-opacity="0" stroke="#000000" stroke-width="1" stroke-opacity="0"></use></g></g><g><use xlink:href="#c3RGPVC55N" opacity="1" fill="#df6a5a" fill-opacity="1"></use><g><use xlink:href="#c3RGPVC55N" opacity="1" fill-opacity="0" stroke="#000000" stroke-width="1" stroke-opacity="0"></use></g></g><g><use xlink:href="#a1x7eUmNbB" opacity="1" fill="#e07561" fill-opacity="1"></use><g><use xlink:href="#a1x7eUmNbB" opacity="1" fill-opacity="0" stroke="#000000" stroke-width="1" stroke-opacity="0"></use></g></g><g><use xlink:href="#e5metT2AZ" opacity="1" fill="#e07561" fill-opacity="1"></use><g><use xlink:href="#e5metT2AZ" opacity="1" fill-opacity="0" stroke="#000000" stroke-width="1" stroke-opacity="0"></use></g></g><g><use xlink:href="#ep6rTPHPu" opacity="1" fill="#e18267" fill-opacity="1"></use><g><use xlink:href="#ep6rTPHPu" opacity="1" fill-opacity="0" stroke="#000000" stroke-width="1" stroke-opacity="0"></use></g></g><g><use xlink:href="#hAvV47xyX" opacity="1" fill="#974b40" fill-opacity="1"></use><g><use xlink:href="#hAvV47xyX" opacity="1" fill-opacity="0" stroke="#000000" stroke-width="1" stroke-opacity="0"></use></g></g><g><use xlink:href="#a2F6gKjaio" opacity="1" fill="#823f37" fill-opacity="1"></use><g><use xlink:href="#a2F6gKjaio" opacity="1" fill-opacity="0" stroke="#000000" stroke-width="1" stroke-opacity="0"></use></g></g><g><use xlink:href="#bfndoA3d1" opacity="1" fill="#e18267" fill-opacity="1"></use><g><use xlink:href="#bfndoA3d1" opacity="1" fill-opacity="0" stroke="#000000" stroke-width="1" stroke-opacity="0"></use></g></g><g><use xlink:href="#a9NqsxG1n" opacity="1" fill="#d37337" fill-opacity="1"></use><g><use xlink:href="#a9NqsxG1n" opacity="1" fill-opacity="0" stroke="#000000" stroke-width="1" stroke-opacity="0"></use></g></g><g><use xlink:href="#c1WaZWJvS" opacity="1" fill="#e18267" fill-opacity="1"></use><g><use xlink:href="#c1WaZWJvS" opacity="1" fill-opacity="0" stroke="#000000" stroke-width="1" stroke-opacity="0"></use></g></g><g><use xlink:href="#adp1pD1yU" opacity="1" fill="#e18267" fill-opacity="1"></use><g><use xlink:href="#adp1pD1yU" opacity="1" fill-opacity="0" stroke="#000000" stroke-width="1" stroke-opacity="0"></use></g></g></g></g></svg>